<svg xmlns="http://www.w3.org/2000/svg" width="512" height="512" viewBox="0 0 512 512">
  <defs>
    <linearGradient id="bg" x1="0%" y1="0%" x2="100%" y2="100%">
      <stop offset="0%" style="stop-color:#1a1a2e"/>
      <stop offset="100%" style="stop-color:#16213e"/>
    </linearGradient>
    <linearGradient id="gold" x1="0%" y1="0%" x2="100%" y2="100%">
      <stop offset="0%" style="stop-color:#f4d03f"/>
      <stop offset="100%" style="stop-color:#e67e22"/>
    </linearGradient>
  </defs>
  
  <!-- 背景 -->
  <rect width="512" height="512" rx="100" fill="url(#bg)"/>
  
  <!-- 台灣島輪廓 (簡化) -->
  <path d="M256 80 
           C 200 100, 180 150, 175 200
           C 170 250, 180 300, 200 350
           C 220 400, 250 430, 256 440
           C 262 430, 292 400, 312 350
           C 332 300, 342 250, 337 200
           C 332 150, 312 100, 256 80 Z" 
        fill="url(#gold)" 
        stroke="#fff" 
        stroke-width="3"/>
  
  <!-- 地標點 -->
  <circle cx="256" cy="160" r="15" fill="#e74c3c"/>
  <circle cx="220" cy="220" r="12" fill="#3498db"/>
  <circle cx="290" cy="240" r="12" fill="#27ae60"/>
  <circle cx="256" cy="320" r="15" fill="#9b59b6"/>
  
  <!-- 星星裝飾 -->
  <text x="100" y="120" font-size="40" fill="#f4d03f">✨</text>
  <text x="380" y="150" font-size="35" fill="#f4d03f">⭐</text>
  <text x="120" y="420" font-size="30" fill="#f4d03f">🌟</text>
  <text x="370" y="400" font-size="35" fill="#f4d03f">✨</text>
</svg>
